<svg width="64" height="90" viewBox="0 0 64 90" fill="none" xmlns="http://www.w3.org/2000/svg">
<path d="M9.08301 0H54.083C56.47 0 58.7591 0.948211 60.447 2.63604C62.1348 4.32387 63.083 6.61305 63.083 9V81C63.083 83.3869 62.1348 85.6761 60.447 87.364C58.7591 89.0518 56.47 90 54.083 90H9.08301C6.69606 90 4.40687 89.0518 2.71905 87.364C1.03122 85.6761 0.0830078 83.3869 0.0830078 81V9C0.0830078 6.61305 1.03122 4.32387 2.71905 2.63604C4.40687 0.948211 6.69606 0 9.08301 0ZM9.08301 9V27H54.083V9H9.08301ZM9.08301 36V45H18.083V36H9.08301ZM27.083 36V45H36.083V36H27.083ZM45.083 36V45H54.083V36H45.083ZM9.08301 54V63H18.083V54H9.08301ZM27.083 54V63H36.083V54H27.083ZM45.083 54V63H54.083V54H45.083ZM9.08301 72V81H18.083V72H9.08301ZM27.083 72V81H36.083V72H27.083ZM45.083 72V81H54.083V72H45.083Z" fill="white"/>
</svg>
