<svg width="31" height="31" viewBox="0 0 31 31" fill="none" xmlns="http://www.w3.org/2000/svg">
<path d="M15.5 25.8334C21.1834 25.8334 25.8334 21.1834 25.8334 15.5C25.8334 9.81671 21.1834 5.16671 15.5 5.16671C9.81671 5.16671 5.16671 9.81671 5.16671 15.5C5.16671 21.1834 9.81671 25.8334 15.5 25.8334ZM15.5 2.58337C22.6042 2.58337 28.4167 8.39587 28.4167 15.5C28.4167 22.6042 22.6042 28.4167 15.5 28.4167C8.39587 28.4167 2.58337 22.6042 2.58337 15.5C2.58337 8.39587 8.39587 2.58337 15.5 2.58337ZM16.1459 16.5334L9.94587 20.15L9.04171 18.3417L14.2084 15.3709V9.04171H16.1459V16.5334Z" fill="black"/>
</svg>
