<svg width="91" height="61" viewBox="0 0 91 61" fill="none" xmlns="http://www.w3.org/2000/svg">
<path d="M26.417 30.5C34.667 30.5 41.417 23.75 41.417 15.5C41.417 7.25 34.667 0.5 26.417 0.5C18.167 0.5 11.417 7.25 11.417 15.5C11.417 23.75 18.167 30.5 26.417 30.5ZM41.417 60.5V40.625C37.292 39.125 32.042 38 26.417 38C11.792 38 0.166992 44.75 0.166992 53V60.5H41.417ZM82.667 0.5H56.417C52.292 0.5 48.917 3.875 48.917 8V53C48.917 57.125 52.292 60.5 56.417 60.5H82.667C86.792 60.5 90.167 57.125 90.167 53V8C90.167 3.875 86.792 0.5 82.667 0.5ZM67.667 53H60.167V8H67.667V53Z" fill="white"/>
</svg>
