<svg width="43" height="34" viewBox="0 0 43 34" fill="none" xmlns="http://www.w3.org/2000/svg">
<path d="M21.5 0C13.3658 0 5.98417 3.18526 0.519583 8.35684C0.197083 8.67895 0 9.12632 0 9.62737C0 10.1284 0.197083 10.5758 0.519583 10.8979L4.96292 15.3358C5.28542 15.6579 5.73333 15.8547 6.27083 15.8547C6.71875 15.8547 7.16667 15.6579 7.48917 15.3537C8.90458 14.0295 10.5171 12.92 12.255 12.0432C12.8462 11.7568 13.2583 11.1484 13.2583 10.4326V4.88526C15.8562 4.02632 18.6154 3.57895 21.5 3.57895C24.3487 3.57895 27.1258 4.02632 29.7237 4.86737V10.4147C29.7237 11.1126 30.1358 11.7389 30.7271 12.0253C32.4829 12.9021 34.0417 14.0295 35.5108 15.3358C35.8333 15.6579 36.2812 15.8368 36.7292 15.8368C37.2667 15.8368 37.7146 15.64 38.0371 15.3179L42.4804 10.88C42.8029 10.5579 43 10.1105 43 9.60947C43 9.10842 42.785 8.67895 42.4625 8.35684C36.9979 3.18526 29.6162 0 21.5 0ZM16.125 7.15789V12.5263C16.125 12.5263 5.375 21.4737 5.375 26.8421V34H37.625V26.8421C37.625 21.4737 26.875 12.5263 26.875 12.5263V7.15789H23.2917V10.7368H19.7083V7.15789H16.125ZM21.5 16.1053C23.4007 16.1053 25.2236 16.8594 26.5676 18.2018C27.9116 19.5441 28.6667 21.3648 28.6667 23.2632C28.6667 25.1615 27.9116 26.9822 26.5676 28.3246C25.2236 29.6669 23.4007 30.4211 21.5 30.4211C19.5993 30.4211 17.7764 29.6669 16.4324 28.3246C15.0884 26.9822 14.3333 25.1615 14.3333 23.2632C14.3333 21.3648 15.0884 19.5441 16.4324 18.2018C17.7764 16.8594 19.5993 16.1053 21.5 16.1053ZM21.5 18.7895C20.312 18.7895 19.1728 19.2608 18.3328 20.0998C17.4927 20.9388 17.0208 22.0767 17.0208 23.2632C17.0208 24.4497 17.4927 25.5876 18.3328 26.4265C19.1728 27.2655 20.312 27.7368 21.5 27.7368C22.6879 27.7368 23.8272 27.2655 24.6672 26.4265C25.5073 25.5876 25.9792 24.4497 25.9792 23.2632C25.9792 22.0767 25.5073 20.9388 24.6672 20.0998C23.8272 19.2608 22.6879 18.7895 21.5 18.7895Z" fill="white"/>
</svg>
