<svg width="83" height="61" viewBox="0 0 83 61" fill="none" xmlns="http://www.w3.org/2000/svg">
<path d="M64 54.875C62.5082 54.875 61.0774 54.2824 60.0225 53.2275C58.9676 52.1726 58.375 50.7418 58.375 49.25C58.375 47.7582 58.9676 46.3274 60.0225 45.2725C61.0774 44.2176 62.5082 43.625 64 43.625C65.4918 43.625 66.9226 44.2176 67.9775 45.2725C69.0324 46.3274 69.625 47.7582 69.625 49.25C69.625 50.7418 69.0324 52.1726 67.9775 53.2275C66.9226 54.2824 65.4918 54.875 64 54.875ZM69.625 21.125L76.975 30.5H60.25V21.125M19 54.875C17.5082 54.875 16.0774 54.2824 15.0225 53.2275C13.9676 52.1726 13.375 50.7418 13.375 49.25C13.375 47.7582 13.9676 46.3274 15.0225 45.2725C16.0774 44.2176 17.5082 43.625 19 43.625C20.4918 43.625 21.9226 44.2176 22.9775 45.2725C24.0324 46.3274 24.625 47.7582 24.625 49.25C24.625 50.7418 24.0324 52.1726 22.9775 53.2275C21.9226 54.2824 20.4918 54.875 19 54.875ZM71.5 15.5H60.25V0.5H7.75C3.5875 0.5 0.25 3.8375 0.25 8V49.25H7.75C7.75 52.2337 8.93526 55.0952 11.045 57.205C13.1548 59.3147 16.0163 60.5 19 60.5C21.9837 60.5 24.8452 59.3147 26.955 57.205C29.0647 55.0952 30.25 52.2337 30.25 49.25H52.75C52.75 52.2337 53.9353 55.0952 56.045 57.205C58.1548 59.3147 61.0163 60.5 64 60.5C66.9837 60.5 69.8452 59.3147 71.955 57.205C74.0647 55.0952 75.25 52.2337 75.25 49.25H82.75V30.5L71.5 15.5Z" fill="white"/>
</svg>
