<svg width="19" height="27" viewBox="0 0 19 27" fill="none" xmlns="http://www.w3.org/2000/svg">
<path d="M9.49967 12.8542C8.64325 12.8542 7.8219 12.514 7.21631 11.9084C6.61072 11.3028 6.27051 10.4814 6.27051 9.625C6.27051 8.76857 6.61072 7.94722 7.21631 7.34164C7.8219 6.73605 8.64325 6.39584 9.49967 6.39584C10.3561 6.39584 11.1775 6.73605 11.783 7.34164C12.3886 7.94722 12.7288 8.76857 12.7288 9.625C12.7288 10.0491 12.6453 10.469 12.483 10.8608C12.3208 11.2525 12.0829 11.6085 11.783 11.9084C11.4832 12.2082 11.1272 12.4461 10.7354 12.6084C10.3436 12.7706 9.92374 12.8542 9.49967 12.8542ZM9.49967 0.583336C7.10168 0.583336 4.80189 1.53594 3.10625 3.23158C1.41061 4.92722 0.458008 7.227 0.458008 9.625C0.458008 16.4063 9.49967 26.4167 9.49967 26.4167C9.49967 26.4167 18.5413 16.4063 18.5413 9.625C18.5413 7.227 17.5887 4.92722 15.8931 3.23158C14.1975 1.53594 11.8977 0.583336 9.49967 0.583336Z" fill="black"/>
</svg>
