<svg width="56" height="44" viewBox="0 0 56 44" fill="none" xmlns="http://www.w3.org/2000/svg">
<path d="M28 0C17.4067 0 7.79333 4.12211 0.676667 10.8147C0.256667 11.2316 0 11.8105 0 12.4589C0 13.1074 0.256667 13.6863 0.676667 14.1032L6.46333 19.8463C6.88333 20.2632 7.46667 20.5179 8.16667 20.5179C8.75 20.5179 9.33333 20.2632 9.75333 19.8695C11.5967 18.1558 13.6967 16.72 15.96 15.5853C16.73 15.2147 17.2667 14.4274 17.2667 13.5011V6.32211C20.65 5.21053 24.2433 4.63158 28 4.63158C31.71 4.63158 35.3267 5.21053 38.71 6.29895V13.4779C38.71 14.3811 39.2467 15.1916 40.0167 15.5621C42.3033 16.6968 44.3333 18.1558 46.2467 19.8463C46.6667 20.2632 47.25 20.4947 47.8333 20.4947C48.5333 20.4947 49.1167 20.24 49.5367 19.8232L55.3233 14.08C55.7433 13.6632 56 13.0842 56 12.4358C56 11.7874 55.72 11.2316 55.3 10.8147C48.1833 4.12211 38.57 0 28 0ZM21 9.26316V16.2105C21 16.2105 7 27.7895 7 34.7368V44H49V34.7368C49 27.7895 35 16.2105 35 16.2105V9.26316H30.3333V13.8947H25.6667V9.26316H21ZM28 20.8421C30.4754 20.8421 32.8493 21.818 34.5997 23.5552C36.35 25.2924 37.3333 27.6485 37.3333 30.1053C37.3333 32.562 36.35 34.9181 34.5997 36.6553C32.8493 38.3925 30.4754 39.3684 28 39.3684C25.5246 39.3684 23.1507 38.3925 21.4003 36.6553C19.65 34.9181 18.6667 32.562 18.6667 30.1053C18.6667 27.6485 19.65 25.2924 21.4003 23.5552C23.1507 21.818 25.5246 20.8421 28 20.8421ZM28 24.3158C26.4529 24.3158 24.9692 24.9258 23.8752 26.0115C22.7812 27.0972 22.1667 28.5698 22.1667 30.1053C22.1667 31.6407 22.7812 33.1133 23.8752 34.199C24.9692 35.2848 26.4529 35.8947 28 35.8947C29.5471 35.8947 31.0308 35.2848 32.1248 34.199C33.2188 33.1133 33.8333 31.6407 33.8333 30.1053C33.8333 28.5698 33.2188 27.0972 32.1248 26.0115C31.0308 24.9258 29.5471 24.3158 28 24.3158Z" fill="black"/>
</svg>
