<svg width="86" height="86" viewBox="0 0 86 86" fill="none" xmlns="http://www.w3.org/2000/svg">
<path d="M43 77C24.2575 77 9 61.7425 9 43C9 24.2575 24.2575 9 43 9C61.7425 9 77 24.2575 77 43C77 61.7425 61.7425 77 43 77ZM43 0.5C37.4188 0.5 31.8923 1.5993 26.736 3.73512C21.5796 5.87094 16.8945 9.00147 12.948 12.948C4.97767 20.9183 0.5 31.7283 0.5 43C0.5 54.2717 4.97767 65.0817 12.948 73.052C16.8945 76.9985 21.5796 80.1291 26.736 82.2649C31.8923 84.4007 37.4188 85.5 43 85.5C54.2717 85.5 65.0817 81.0223 73.052 73.052C81.0223 65.0817 85.5 54.2717 85.5 43C85.5 37.4188 84.4007 31.8923 82.2649 26.736C80.1291 21.5796 76.9985 16.8945 73.052 12.948C69.1055 9.00147 64.4204 5.87094 59.264 3.73512C54.1077 1.5993 48.5812 0.5 43 0.5ZM34.5 62.125L60 43L34.5 23.875V62.125Z" fill="white" fill-opacity="0.7"/>
</svg>
