<svg width="22" height="23" viewBox="0 0 22 23" fill="none" xmlns="http://www.w3.org/2000/svg">
<path d="M17 15.5H16.42L15.61 14.69C16.5 13.5 17 12 17 10.5C17 6.63 13.87 3.5 10 3.5C8.5 3.5 7 4 5.79 4.9C2.7 7.22 2.07 11.61 4.39 14.7C6.71 17.79 11.1 18.42 14.19 16.1L15 16.91V17.5L20 22.5L22 20.5L17 15.5ZM10 15.5C7.24 15.5 5 13.26 5 10.5C5 7.74 7.24 5.5 10 5.5C12.76 5.5 15 7.74 15 10.5C15 13.26 12.76 15.5 10 15.5ZM2 5.5L0 7.5V0.5H7L5 2.5H2V5.5ZM20 0.5V7.5L18 5.5V2.5H15L13 0.5H20ZM5 18.5L7 20.5H0V13.5L2 15.5V18.5H5Z" fill="black"/>
</svg>
